<svg xmlns="http://www.w3.org/2000/svg" width="48" height="48" viewBox="0 0 48 48" id="spinner"><path d="M45 27h-6c-1.659 0-3-1.341-3-3a3 3 0 0 1 3-3h6a3 3 0 0 1 3 3c0 1.659-1.341 3-3 3zm-8.274-11.484c-1.173 1.173-3.069 1.173-4.242 0s-1.173-3.069 0-4.242l4.242-4.245a3 3 0 1 1 4.242 4.245l-4.242 4.242zM24 48a3 3 0 0 1-3-3v-6a3.001 3.001 0 0 1 6 0v6c0 1.659-1.341 3-3 3zm0-36a3 3 0 0 1-3-3V3a3.001 3.001 0 0 1 6 0v6c0 1.659-1.341 3-3 3zM11.271 40.971c-1.173 1.173-3.069 1.173-4.242 0s-1.173-3.072 0-4.242l4.242-4.245a3 3 0 1 1 4.242 4.245l-4.242 4.242zm0-25.455l-4.242-4.242a3 3 0 1 1 4.242-4.245l4.242 4.245a2.997 2.997 0 0 1 0 4.242 3.002 3.002 0 0 1-4.242 0zM12 24a3 3 0 0 1-3 3H3a3 3 0 1 1 0-6h6c1.656 0 3 1.344 3 3zm24.726 8.484l4.242 4.245c1.173 1.17 1.173 3.069 0 4.242s-3.069 1.173-4.242 0l-4.242-4.242a3 3 0 1 1 4.242-4.245z" fill="#ccc"></path></svg>